<svg version="1.1" xmlns="http://www.w3.org/2000/svg" xmlns:xlink="http://www.w3.org/1999/xlink" width="1273.20458984375" height="504"><defs/><g><g transform="translate(-118,-2110) scale(1,1)"><rect fill="#C0C0C0" stroke="none" x="415" y="2127" width="112" height="112" opacity="0.2"/></g><g transform="translate(-118,-2110) scale(1,1)"><rect fill="#ffffff" stroke="none" x="408" y="2120" width="112" height="112"/></g><g transform="translate(-118,-2110) scale(1,1)"><path fill="none" stroke="#000000" d="M 408 2120 L 520 2120 L 520 2232 L 408 2232 L 408 2120 Z Z" stroke-miterlimit="10"/></g><g transform="translate(-118,-2110) scale(1,1)"><path fill="none" stroke="#000000" d="M 408 2145 L 520 2145" stroke-miterlimit="10"/></g><g transform="translate(-118,-2110) scale(1,1)"><path fill="none" stroke="#000000" d="M 408 2155 L 520 2155" stroke-miterlimit="10"/></g><g transform="translate(-118,-2110) scale(1,1)"><g><path fill="none" stroke="none"/><text fill="#000000" stroke="none" font-family="Arial" font-size="13px" font-style="normal" font-weight="bold" text-decoration="none" x="449.911376953125" y="2139.5">Core</text></g></g><g transform="translate(-118,-2110) scale(1,1)"><rect fill="#C0C0C0" stroke="none" x="151" y="2335" width="74.74267578125" height="44" opacity="0.2"/></g><g transform="translate(-118,-2110) scale(1,1)"><rect fill="#ffffff" stroke="none" x="144" y="2328" width="74.74267578125" height="44"/></g><g transform="translate(-118,-2110) scale(1,1)"><path fill="none" stroke="#000000" d="M 144 2328 L 218.74267578125 2328 L 218.74267578125 2372 L 144 2372 L 144 2328 Z Z" stroke-miterlimit="10"/></g><g transform="translate(-118,-2110) scale(1,1)"><path fill="none" stroke="#000000" d="M 144 2353 L 218.74267578125 2353" stroke-miterlimit="10"/></g><g transform="translate(-118,-2110) scale(1,1)"><path fill="none" stroke="#000000" d="M 144 2363 L 218.74267578125 2363" stroke-miterlimit="10"/></g><g transform="translate(-118,-2110) scale(1,1)"><g><path fill="none" stroke="none"/><text fill="#000000" stroke="none" font-family="Arial" font-size="13px" font-style="normal" font-weight="bold" text-decoration="none" x="150.30908203125" y="2347.5">GuiDrawer</text></g></g><g transform="translate(-118,-2110) scale(1,1)"><path fill="none" stroke="#000000" d="M 464 2232 L 464 2341 M 464 2341 A 8 8 0 0 1 456 2349 L 219 2349" stroke-miterlimit="10"/></g><g transform="translate(-118,-2110) scale(1,1)"><path fill="#FFFFFF" stroke="none" d="M 468.209517756016 2242.162674857624 L 464 2232 L 459.790482243984 2242.162674857624 L 464 2254"/></g><g transform="translate(-118,-2110) scale(1,1)"><path fill="none" stroke="#000000" d="M 468.209517756016 2242.162674857624 L 464 2232 L 459.790482243984 2242.162674857624 L 464 2254 L 468.209517756016 2242.162674857624" stroke-miterlimit="10"/></g><g transform="translate(-118,-2110) scale(1,1)"><path fill="none" stroke="#000000" d="M 192.5 2219 A 11.5 11.5 0 0 1 169.5 2219" stroke-miterlimit="10"/></g><g transform="translate(-118,-2110) scale(1,1)"><g><path fill="none" stroke="none"/><text fill="#000000" stroke="none" font-family="Arial" font-size="13px" font-style="normal" font-weight="bold" text-decoration="none" x="136.083251953125" y="2250.5">LoggetInterface</text></g></g><g transform="translate(-118,-2110) scale(1,1)"><path fill="none" stroke="#000000" d="M 181 2327 L 181 2231" stroke-miterlimit="10"/></g><g transform="translate(-118,-2110) scale(1,1)"><rect fill="#C0C0C0" stroke="none" x="591" y="2567" width="94.20458984375" height="44" opacity="0.2"/></g><g transform="translate(-118,-2110) scale(1,1)"><rect fill="#ffffff" stroke="none" x="584" y="2560" width="94.20458984375" height="44"/></g><g transform="translate(-118,-2110) scale(1,1)"><path fill="none" stroke="#000000" d="M 584 2560 L 678.20458984375 2560 L 678.20458984375 2604 L 584 2604 L 584 2560 Z Z" stroke-miterlimit="10"/></g><g transform="translate(-118,-2110) scale(1,1)"><path fill="none" stroke="#000000" d="M 584 2585 L 678.20458984375 2585" stroke-miterlimit="10"/></g><g transform="translate(-118,-2110) scale(1,1)"><path fill="none" stroke="#000000" d="M 584 2595 L 678.20458984375 2595" stroke-miterlimit="10"/></g><g transform="translate(-118,-2110) scale(1,1)"><g><path fill="none" stroke="none"/><text fill="#000000" stroke="none" font-family="Arial" font-size="13px" font-style="normal" font-weight="bold" text-decoration="none" x="592.438720703125" y="2579.5">Configuration</text></g></g><g transform="translate(-118,-2110) scale(1,1)"><path fill="none" stroke="#000000" d="M 520 2176 L 609 2176 M 609 2176 A 8 8 0 0 1 617 2184 L 617 2560" stroke-miterlimit="10"/></g><g transform="translate(-118,-2110) scale(1,1)"><path fill="#FFFFFF" stroke="none" d="M 530.1626748576241 2171.790482243984 L 520 2176 L 530.1626748576241 2180.209517756016 L 542 2176"/></g><g transform="translate(-118,-2110) scale(1,1)"><path fill="none" stroke="#000000" d="M 530.1626748576241 2171.790482243984 L 520 2176 L 530.1626748576241 2180.209517756016 L 542 2176 L 530.1626748576241 2171.790482243984" stroke-miterlimit="10"/></g><g transform="translate(-118,-2110) scale(1,1)"><rect fill="#C0C0C0" stroke="none" x="1295" y="2335" width="93.20458984375" height="44" opacity="0.2"/></g><g transform="translate(-118,-2110) scale(1,1)"><rect fill="#ffffff" stroke="none" x="1288" y="2328" width="93.20458984375" height="44"/></g><g transform="translate(-118,-2110) scale(1,1)"><path fill="none" stroke="#000000" d="M 1288 2328 L 1381.20458984375 2328 L 1381.20458984375 2372 L 1288 2372 L 1288 2328 Z Z" stroke-miterlimit="10"/></g><g transform="translate(-118,-2110) scale(1,1)"><path fill="none" stroke="#000000" d="M 1288 2353 L 1381.20458984375 2353" stroke-miterlimit="10"/></g><g transform="translate(-118,-2110) scale(1,1)"><path fill="none" stroke="#000000" d="M 1288 2363 L 1381.20458984375 2363" stroke-miterlimit="10"/></g><g transform="translate(-118,-2110) scale(1,1)"><g><path fill="none" stroke="none"/><text fill="#000000" stroke="none" font-family="Arial" font-size="13px" font-style="normal" font-weight="bold" text-decoration="none" x="1297.754150390625" y="2347.5">StateFactory</text></g></g><g transform="translate(-118,-2110) scale(1,1)"><path fill="none" stroke="#000000" d="M 464 2232 L 464 2272 M 464 2272 A 8 8 0 0 0 472 2280 L 1280 2280 M 1280 2280 A 8 8 0 0 1 1288 2288 L 1288 2328" stroke-miterlimit="10"/></g><g transform="translate(-118,-2110) scale(1,1)"><path fill="#FFFFFF" stroke="none" d="M 468.209517756016 2242.162674857624 L 464 2232 L 459.790482243984 2242.162674857624 L 464 2254"/></g><g transform="translate(-118,-2110) scale(1,1)"><path fill="none" stroke="#000000" d="M 468.209517756016 2242.162674857624 L 464 2232 L 459.790482243984 2242.162674857624 L 464 2254 L 468.209517756016 2242.162674857624" stroke-miterlimit="10"/></g><g transform="translate(-118,-2110) scale(1,1)"><rect fill="#C0C0C0" stroke="none" x="303" y="2335" width="102.89453125" height="44" opacity="0.2"/></g><g transform="translate(-118,-2110) scale(1,1)"><rect fill="#ffffff" stroke="none" x="296" y="2328" width="102.89453125" height="44"/></g><g transform="translate(-118,-2110) scale(1,1)"><path fill="none" stroke="#000000" d="M 296 2328 L 398.89453125 2328 L 398.89453125 2372 L 296 2372 L 296 2328 Z Z" stroke-miterlimit="10"/></g><g transform="translate(-118,-2110) scale(1,1)"><path fill="none" stroke="#000000" d="M 296 2353 L 398.89453125 2353" stroke-miterlimit="10"/></g><g transform="translate(-118,-2110) scale(1,1)"><path fill="none" stroke="#000000" d="M 296 2363 L 398.89453125 2363" stroke-miterlimit="10"/></g><g transform="translate(-118,-2110) scale(1,1)"><g><path fill="none" stroke="none"/><text fill="#000000" stroke="none" font-family="Arial" font-size="13px" font-style="normal" font-weight="bold" text-decoration="none" x="303.724609375" y="2347.5">InputGenerator</text></g></g><g transform="translate(-118,-2110) scale(1,1)"><path fill="none" stroke="#000000" d="M 464 2232 L 464 2342 M 464 2342 A 8 8 0 0 1 456 2350 L 399 2350" stroke-miterlimit="10"/></g><g transform="translate(-118,-2110) scale(1,1)"><path fill="#FFFFFF" stroke="none" d="M 468.209517756016 2242.162674857624 L 464 2232 L 459.790482243984 2242.162674857624 L 464 2254"/></g><g transform="translate(-118,-2110) scale(1,1)"><path fill="none" stroke="#000000" d="M 468.209517756016 2242.162674857624 L 464 2232 L 459.790482243984 2242.162674857624 L 464 2254 L 468.209517756016 2242.162674857624" stroke-miterlimit="10"/></g><g transform="translate(-118,-2110) scale(1,1)"><rect fill="#C0C0C0" stroke="none" x="439" y="2335" width="144.10986328125" height="44" opacity="0.2"/></g><g transform="translate(-118,-2110) scale(1,1)"><rect fill="#ffffff" stroke="none" x="432" y="2328" width="144.10986328125" height="44"/></g><g transform="translate(-118,-2110) scale(1,1)"><path fill="none" stroke="#000000" d="M 432 2328 L 576.10986328125 2328 L 576.10986328125 2372 L 432 2372 L 432 2328 Z Z" stroke-miterlimit="10"/></g><g transform="translate(-118,-2110) scale(1,1)"><path fill="none" stroke="#000000" d="M 432 2353 L 576.10986328125 2353" stroke-miterlimit="10"/></g><g transform="translate(-118,-2110) scale(1,1)"><path fill="none" stroke="#000000" d="M 432 2363 L 576.10986328125 2363" stroke-miterlimit="10"/></g><g transform="translate(-118,-2110) scale(1,1)"><g><path fill="none" stroke="none"/><text fill="#000000" stroke="none" font-family="Arial" font-size="13px" font-style="normal" font-weight="bold" text-decoration="none" x="440.46728515625" y="2347.5">AoICoverageResolver</text></g></g><g transform="translate(-118,-2110) scale(1,1)"><path fill="none" stroke="#000000" d="M 464 2232 L 464 2328" stroke-miterlimit="10"/></g><g transform="translate(-118,-2110) scale(1,1)"><path fill="#FFFFFF" stroke="none" d="M 468.209517756016 2242.162674857624 L 464 2232 L 459.790482243984 2242.162674857624 L 464 2254"/></g><g transform="translate(-118,-2110) scale(1,1)"><path fill="none" stroke="#000000" d="M 468.209517756016 2242.162674857624 L 464 2232 L 459.790482243984 2242.162674857624 L 464 2254 L 468.209517756016 2242.162674857624" stroke-miterlimit="10"/></g><g transform="translate(-118,-2110) scale(1,1)"><rect fill="#C0C0C0" stroke="none" x="615" y="2335" width="122.1689453125" height="44" opacity="0.2"/></g><g transform="translate(-118,-2110) scale(1,1)"><rect fill="#ffffff" stroke="none" x="608" y="2328" width="122.1689453125" height="44"/></g><g transform="translate(-118,-2110) scale(1,1)"><path fill="none" stroke="#000000" d="M 608 2328 L 730.1689453125 2328 L 730.1689453125 2372 L 608 2372 L 608 2328 Z Z" stroke-miterlimit="10"/></g><g transform="translate(-118,-2110) scale(1,1)"><path fill="none" stroke="#000000" d="M 608 2353 L 730.1689453125 2353" stroke-miterlimit="10"/></g><g transform="translate(-118,-2110) scale(1,1)"><path fill="none" stroke="#000000" d="M 608 2363 L 730.1689453125 2363" stroke-miterlimit="10"/></g><g transform="translate(-118,-2110) scale(1,1)"><g><path fill="none" stroke="none"/><text fill="#000000" stroke="none" font-family="Arial" font-size="13px" font-style="normal" font-weight="bold" text-decoration="none" x="618.147705078125" y="2347.5">DistanceResolver</text></g></g><g transform="translate(-118,-2110) scale(1,1)"><path fill="none" stroke="#000000" d="M 520 2176 L 632 2176 M 632 2176 A 8 8 0 0 1 640 2184 L 640 2328" stroke-miterlimit="10"/></g><g transform="translate(-118,-2110) scale(1,1)"><path fill="#FFFFFF" stroke="none" d="M 530.1626748576241 2171.790482243984 L 520 2176 L 530.1626748576241 2180.209517756016 L 542 2176"/></g><g transform="translate(-118,-2110) scale(1,1)"><path fill="none" stroke="#000000" d="M 530.1626748576241 2171.790482243984 L 520 2176 L 530.1626748576241 2180.209517756016 L 542 2176 L 530.1626748576241 2171.790482243984" stroke-miterlimit="10"/></g><g transform="translate(-118,-2110) scale(1,1)"><rect fill="#C0C0C0" stroke="none" x="751" y="2335" width="136.83544921875" height="44" opacity="0.2"/></g><g transform="translate(-118,-2110) scale(1,1)"><rect fill="#ffffff" stroke="none" x="744" y="2328" width="136.83544921875" height="44"/></g><g transform="translate(-118,-2110) scale(1,1)"><path fill="none" stroke="#000000" d="M 744 2328 L 880.83544921875 2328 L 880.83544921875 2372 L 744 2372 L 744 2328 Z Z" stroke-miterlimit="10"/></g><g transform="translate(-118,-2110) scale(1,1)"><path fill="none" stroke="#000000" d="M 744 2353 L 880.83544921875 2353" stroke-miterlimit="10"/></g><g transform="translate(-118,-2110) scale(1,1)"><path fill="none" stroke="#000000" d="M 744 2363 L 880.83544921875 2363" stroke-miterlimit="10"/></g><g transform="translate(-118,-2110) scale(1,1)"><g><path fill="none" stroke="none"/><text fill="#000000" stroke="none" font-family="Arial" font-size="13px" font-style="normal" font-weight="bold" text-decoration="none" x="752.806884765625" y="2347.5">CarLikeMotionModel</text></g></g><g transform="translate(-118,-2110) scale(1,1)"><path fill="none" stroke="#000000" d="M 464 2232 L 464 2240 M 464 2240 A 8 8 0 0 0 472 2248 L 736 2248 M 736 2248 A 8 8 0 0 1 744 2256 L 744 2328" stroke-miterlimit="10"/></g><g transform="translate(-118,-2110) scale(1,1)"><path fill="#FFFFFF" stroke="none" d="M 468.209517756016 2242.162674857624 L 464 2232 L 459.790482243984 2242.162674857624 L 464 2254"/></g><g transform="translate(-118,-2110) scale(1,1)"><path fill="none" stroke="#000000" d="M 468.209517756016 2242.162674857624 L 464 2232 L 459.790482243984 2242.162674857624 L 464 2254 L 468.209517756016 2242.162674857624" stroke-miterlimit="10"/></g><g transform="translate(-118,-2110) scale(1,1)"><rect fill="#C0C0C0" stroke="none" x="927" y="2423" width="120.1689453125" height="44" opacity="0.2"/></g><g transform="translate(-118,-2110) scale(1,1)"><rect fill="#ffffff" stroke="none" x="920" y="2416" width="120.1689453125" height="44"/></g><g transform="translate(-118,-2110) scale(1,1)"><path fill="none" stroke="#000000" d="M 920 2416 L 1040.1689453125 2416 L 1040.1689453125 2460 L 920 2460 L 920 2416 Z Z" stroke-miterlimit="10"/></g><g transform="translate(-118,-2110) scale(1,1)"><path fill="none" stroke="#000000" d="M 920 2441 L 1040.1689453125 2441" stroke-miterlimit="10"/></g><g transform="translate(-118,-2110) scale(1,1)"><path fill="none" stroke="#000000" d="M 920 2451 L 1040.1689453125 2451" stroke-miterlimit="10"/></g><g transform="translate(-118,-2110) scale(1,1)"><g><path fill="none" stroke="none"/><text fill="#000000" stroke="none" font-family="Arial" font-size="13px" font-style="normal" font-weight="bold" text-decoration="none" x="930.95361328125" y="2435.5">CollisionDetector</text></g></g><g transform="translate(-118,-2110) scale(1,1)"><path fill="none" stroke="#000000" d="M 416 2232 L 416 2430 M 416 2430 A 8 8 0 0 0 424 2438 L 920 2438" stroke-miterlimit="10"/></g><g transform="translate(-118,-2110) scale(1,1)"><path fill="#FFFFFF" stroke="none" d="M 420.209517756016 2242.162674857624 L 416 2232 L 411.790482243984 2242.162674857624 L 416 2254"/></g><g transform="translate(-118,-2110) scale(1,1)"><path fill="none" stroke="#000000" d="M 420.209517756016 2242.162674857624 L 416 2232 L 411.790482243984 2242.162674857624 L 416 2254 L 420.209517756016 2242.162674857624" stroke-miterlimit="10"/></g><g transform="translate(-118,-2110) scale(1,1)"><rect fill="#C0C0C0" stroke="none" x="927" y="2335" width="119.1689453125" height="44" opacity="0.2"/></g><g transform="translate(-118,-2110) scale(1,1)"><rect fill="#ffffff" stroke="none" x="920" y="2328" width="119.1689453125" height="44"/></g><g transform="translate(-118,-2110) scale(1,1)"><path fill="none" stroke="#000000" d="M 920 2328 L 1039.1689453125 2328 L 1039.1689453125 2372 L 920 2372 L 920 2328 Z Z" stroke-miterlimit="10"/></g><g transform="translate(-118,-2110) scale(1,1)"><path fill="none" stroke="#000000" d="M 920 2353 L 1039.1689453125 2353" stroke-miterlimit="10"/></g><g transform="translate(-118,-2110) scale(1,1)"><path fill="none" stroke="#000000" d="M 920 2363 L 1039.1689453125 2363" stroke-miterlimit="10"/></g><g transform="translate(-118,-2110) scale(1,1)"><g><path fill="none" stroke="none"/><text fill="#000000" stroke="none" font-family="Arial" font-size="13px" font-style="normal" font-weight="bold" text-decoration="none" x="943.450439453125" y="2347.5">PathHandler</text></g></g><g transform="translate(-118,-2110) scale(1,1)"><path fill="none" stroke="#000000" d="M 464 2232 L 464 2256 M 464 2256 A 8 8 0 0 0 472 2264 L 912 2264 M 912 2264 A 8 8 0 0 1 920 2272 L 920 2328" stroke-miterlimit="10"/></g><g transform="translate(-118,-2110) scale(1,1)"><path fill="#FFFFFF" stroke="none" d="M 468.209517756016 2242.162674857624 L 464 2232 L 459.790482243984 2242.162674857624 L 464 2254"/></g><g transform="translate(-118,-2110) scale(1,1)"><path fill="none" stroke="#000000" d="M 468.209517756016 2242.162674857624 L 464 2232 L 459.790482243984 2242.162674857624 L 464 2254 L 468.209517756016 2242.162674857624" stroke-miterlimit="10"/></g><g transform="translate(-118,-2110) scale(1,1)"><rect fill="#C0C0C0" stroke="none" x="1167" y="2335" width="118.1689453125" height="44" opacity="0.2"/></g><g transform="translate(-118,-2110) scale(1,1)"><rect fill="#ffffff" stroke="none" x="1160" y="2328" width="118.1689453125" height="44"/></g><g transform="translate(-118,-2110) scale(1,1)"><path fill="none" stroke="#000000" d="M 1160 2328 L 1278.1689453125 2328 L 1278.1689453125 2372 L 1160 2372 L 1160 2328 Z Z" stroke-miterlimit="10"/></g><g transform="translate(-118,-2110) scale(1,1)"><path fill="none" stroke="#000000" d="M 1160 2353 L 1278.1689453125 2353" stroke-miterlimit="10"/></g><g transform="translate(-118,-2110) scale(1,1)"><path fill="none" stroke="#000000" d="M 1160 2363 L 1278.1689453125 2363" stroke-miterlimit="10"/></g><g transform="translate(-118,-2110) scale(1,1)"><g><path fill="none" stroke="none"/><text fill="#000000" stroke="none" font-family="Arial" font-size="13px" font-style="normal" font-weight="bold" text-decoration="none" x="1193.43994140625" y="2347.5">Persister</text></g></g><g transform="translate(-118,-2110) scale(1,1)"><path fill="none" stroke="#000000" d="M 464 2232 L 464 2304 M 464 2304 A 8 8 0 0 0 472 2312 L 1152 2312 M 1152 2312 A 8 8 0 0 1 1160 2320 L 1160 2328" stroke-miterlimit="10"/></g><g transform="translate(-118,-2110) scale(1,1)"><path fill="#FFFFFF" stroke="none" d="M 468.209517756016 2242.162674857624 L 464 2232 L 459.790482243984 2242.162674857624 L 464 2254"/></g><g transform="translate(-118,-2110) scale(1,1)"><path fill="none" stroke="#000000" d="M 468.209517756016 2242.162674857624 L 464 2232 L 459.790482243984 2242.162674857624 L 464 2254 L 468.209517756016 2242.162674857624" stroke-miterlimit="10"/></g><g transform="translate(-118,-2110) scale(1,1)"><path fill="none" stroke="#000000" d="M 1334 2372 L 1334 2582 M 1334 2582 A 8 8 0 0 1 1326 2590 L 678 2590" stroke-miterlimit="10"/></g><g transform="translate(-118,-2110) scale(1,1)"><path fill="#FFFFFF" stroke="none" d="M 1338.2095177560159 2382.162674857624 L 1334 2372 L 1329.7904822439841 2382.162674857624 L 1334 2394"/></g><g transform="translate(-118,-2110) scale(1,1)"><path fill="none" stroke="#000000" d="M 1338.2095177560159 2382.162674857624 L 1334 2372 L 1329.7904822439841 2382.162674857624 L 1334 2394 L 1338.2095177560159 2382.162674857624" stroke-miterlimit="10"/></g><g transform="translate(-118,-2110) scale(1,1)"><path fill="none" stroke="#000000" d="M 666 2372 L 666 2560" stroke-miterlimit="10"/></g><g transform="translate(-118,-2110) scale(1,1)"><path fill="#FFFFFF" stroke="none" d="M 670.209517756016 2382.162674857624 L 666 2372 L 661.790482243984 2382.162674857624 L 666 2394"/></g><g transform="translate(-118,-2110) scale(1,1)"><path fill="none" stroke="#000000" d="M 670.209517756016 2382.162674857624 L 666 2372 L 661.790482243984 2382.162674857624 L 666 2394 L 670.209517756016 2382.162674857624" stroke-miterlimit="10"/></g><g transform="translate(-118,-2110) scale(1,1)"><rect fill="#C0C0C0" stroke="none" x="303" y="2471" width="119.5126953125" height="44" opacity="0.2"/></g><g transform="translate(-118,-2110) scale(1,1)"><rect fill="#ffffff" stroke="none" x="296" y="2464" width="119.5126953125" height="44"/></g><g transform="translate(-118,-2110) scale(1,1)"><path fill="none" stroke="#000000" d="M 296 2464 L 415.5126953125 2464 L 415.5126953125 2508 L 296 2508 L 296 2464 Z Z" stroke-miterlimit="10"/></g><g transform="translate(-118,-2110) scale(1,1)"><path fill="none" stroke="#000000" d="M 296 2489 L 415.5126953125 2489" stroke-miterlimit="10"/></g><g transform="translate(-118,-2110) scale(1,1)"><path fill="none" stroke="#000000" d="M 296 2499 L 415.5126953125 2499" stroke-miterlimit="10"/></g><g transform="translate(-118,-2110) scale(1,1)"><g><path fill="none" stroke="none"/><text fill="#000000" stroke="none" font-family="Arial" font-size="13px" font-style="normal" font-weight="bold" text-decoration="none" x="303.73095703125" y="2483.5">NTupletGenerator</text></g></g><g transform="translate(-118,-2110) scale(1,1)"><path fill="none" stroke="#000000" d="M 318 2372 L 318 2464" stroke-miterlimit="10"/></g><g transform="translate(-118,-2110) scale(1,1)"><path fill="#FFFFFF" stroke="none" d="M 322.209517756016 2382.162674857624 L 318 2372 L 313.790482243984 2382.162674857624 L 318 2394"/></g><g transform="translate(-118,-2110) scale(1,1)"><path fill="none" stroke="#000000" d="M 322.209517756016 2382.162674857624 L 318 2372 L 313.790482243984 2382.162674857624 L 318 2394 L 322.209517756016 2382.162674857624" stroke-miterlimit="10"/></g><g transform="translate(-118,-2110) scale(1,1)"><path fill="none" stroke="#000000" d="M 807 2372 L 807 2582 M 807 2582 A 8 8 0 0 1 799 2590 L 678 2590" stroke-miterlimit="10"/></g><g transform="translate(-118,-2110) scale(1,1)"><path fill="#FFFFFF" stroke="none" d="M 811.209517756016 2382.162674857624 L 807 2372 L 802.790482243984 2382.162674857624 L 807 2394"/></g><g transform="translate(-118,-2110) scale(1,1)"><path fill="none" stroke="#000000" d="M 811.209517756016 2382.162674857624 L 807 2372 L 802.790482243984 2382.162674857624 L 807 2394 L 811.209517756016 2382.162674857624" stroke-miterlimit="10"/></g><g transform="translate(-118,-2110) scale(1,1)"><path fill="none" stroke="#000000" d="M 964 2460 L 964 2582 M 964 2582 A 8 8 0 0 1 956 2590 L 678 2590" stroke-miterlimit="10"/></g><g transform="translate(-118,-2110) scale(1,1)"><path fill="#FFFFFF" stroke="none" d="M 968.209517756016 2470.162674857624 L 964 2460 L 959.790482243984 2470.162674857624 L 964 2482"/></g><g transform="translate(-118,-2110) scale(1,1)"><path fill="none" stroke="#000000" d="M 968.209517756016 2470.162674857624 L 964 2460 L 959.790482243984 2470.162674857624 L 964 2482 L 968.209517756016 2470.162674857624" stroke-miterlimit="10"/></g><g transform="translate(-118,-2110) scale(1,1)"><path fill="none" stroke="#000000" d="M 981 2372 L 981 2416" stroke-miterlimit="10"/></g><g transform="translate(-118,-2110) scale(1,1)"><path fill="#FFFFFF" stroke="none" d="M 985.209517756016 2382.162674857624 L 981 2372 L 976.790482243984 2382.162674857624 L 981 2394"/></g><g transform="translate(-118,-2110) scale(1,1)"><path fill="none" stroke="#000000" d="M 985.209517756016 2382.162674857624 L 981 2372 L 976.790482243984 2382.162674857624 L 981 2394 L 985.209517756016 2382.162674857624" stroke-miterlimit="10"/></g></g></svg>