<svg version="1.1" xmlns="http://www.w3.org/2000/svg" xmlns:xlink="http://www.w3.org/1999/xlink" width="1081.20458984375" height="504"><defs/><g><g transform="translate(-182,-2110) scale(1,1)"><rect fill="#C0C0C0" stroke="none" x="415" y="2127" width="112" height="112" opacity="0.2"/></g><g transform="translate(-182,-2110) scale(1,1)"><rect fill="#ffffff" stroke="none" x="408" y="2120" width="112" height="112"/></g><g transform="translate(-182,-2110) scale(1,1)"><path fill="none" stroke="#000000" d="M 408 2120 L 520 2120 L 520 2232 L 408 2232 L 408 2120 Z Z" stroke-miterlimit="10"/></g><g transform="translate(-182,-2110) scale(1,1)"><path fill="none" stroke="#000000" d="M 408 2145 L 520 2145" stroke-miterlimit="10"/></g><g transform="translate(-182,-2110) scale(1,1)"><path fill="none" stroke="#000000" d="M 408 2155 L 520 2155" stroke-miterlimit="10"/></g><g transform="translate(-182,-2110) scale(1,1)"><g><path fill="none" stroke="none"/><text fill="#000000" stroke="none" font-family="Arial" font-size="13px" font-style="normal" font-weight="bold" text-decoration="none" x="449.911376953125" y="2139.5">Core</text></g></g><g transform="translate(-182,-2110) scale(1,1)"><rect fill="#C0C0C0" stroke="none" x="215" y="2335" width="74.74267578125" height="44" opacity="0.2"/></g><g transform="translate(-182,-2110) scale(1,1)"><rect fill="#ffffff" stroke="none" x="208" y="2328" width="74.74267578125" height="44"/></g><g transform="translate(-182,-2110) scale(1,1)"><path fill="none" stroke="#000000" d="M 208 2328 L 282.74267578125 2328 L 282.74267578125 2372 L 208 2372 L 208 2328 Z Z" stroke-miterlimit="10"/></g><g transform="translate(-182,-2110) scale(1,1)"><path fill="none" stroke="#000000" d="M 208 2353 L 282.74267578125 2353" stroke-miterlimit="10"/></g><g transform="translate(-182,-2110) scale(1,1)"><path fill="none" stroke="#000000" d="M 208 2363 L 282.74267578125 2363" stroke-miterlimit="10"/></g><g transform="translate(-182,-2110) scale(1,1)"><g><path fill="none" stroke="none"/><text fill="#000000" stroke="none" font-family="Arial" font-size="13px" font-style="normal" font-weight="bold" text-decoration="none" x="214.30908203125" y="2347.5">GuiDrawer</text></g></g><g transform="translate(-182,-2110) scale(1,1)"><path fill="none" stroke="#000000" d="M 464 2232 L 464 2280 M 464 2280 A 8 8 0 0 1 456 2288 L 253 2288 M 253 2288 A 8 8 0 0 0 245 2296 L 245 2328" stroke-miterlimit="10"/></g><g transform="translate(-182,-2110) scale(1,1)"><path fill="#FFFFFF" stroke="none" d="M 468.209517756016 2242.162674857624 L 464 2232 L 459.790482243984 2242.162674857624 L 464 2254"/></g><g transform="translate(-182,-2110) scale(1,1)"><path fill="none" stroke="#000000" d="M 468.209517756016 2242.162674857624 L 464 2232 L 459.790482243984 2242.162674857624 L 464 2254 L 468.209517756016 2242.162674857624" stroke-miterlimit="10"/></g><g transform="translate(-182,-2110) scale(1,1)"><path fill="none" stroke="#000000" d="M 256.5 2219 A 11.5 11.5 0 0 1 233.5 2219" stroke-miterlimit="10"/></g><g transform="translate(-182,-2110) scale(1,1)"><g><path fill="none" stroke="none"/><text fill="#000000" stroke="none" font-family="Arial" font-size="13px" font-style="normal" font-weight="bold" text-decoration="none" x="200.089599609375" y="2250.5">LoggerInterface</text></g></g><g transform="translate(-182,-2110) scale(1,1)"><path fill="none" stroke="#000000" d="M 245 2327 L 245 2231" stroke-miterlimit="10"/></g><g transform="translate(-182,-2110) scale(1,1)"><rect fill="#C0C0C0" stroke="none" x="591" y="2567" width="94.20458984375" height="44" opacity="0.2"/></g><g transform="translate(-182,-2110) scale(1,1)"><rect fill="#ffffff" stroke="none" x="584" y="2560" width="94.20458984375" height="44"/></g><g transform="translate(-182,-2110) scale(1,1)"><path fill="none" stroke="#000000" d="M 584 2560 L 678.20458984375 2560 L 678.20458984375 2604 L 584 2604 L 584 2560 Z Z" stroke-miterlimit="10"/></g><g transform="translate(-182,-2110) scale(1,1)"><path fill="none" stroke="#000000" d="M 584 2585 L 678.20458984375 2585" stroke-miterlimit="10"/></g><g transform="translate(-182,-2110) scale(1,1)"><path fill="none" stroke="#000000" d="M 584 2595 L 678.20458984375 2595" stroke-miterlimit="10"/></g><g transform="translate(-182,-2110) scale(1,1)"><g><path fill="none" stroke="none"/><text fill="#000000" stroke="none" font-family="Arial" font-size="13px" font-style="normal" font-weight="bold" text-decoration="none" x="592.438720703125" y="2579.5">Configuration</text></g></g><g transform="translate(-182,-2110) scale(1,1)"><path fill="none" stroke="#000000" d="M 520 2176 L 609 2176 M 609 2176 A 8 8 0 0 1 617 2184 L 617 2560" stroke-miterlimit="10"/></g><g transform="translate(-182,-2110) scale(1,1)"><path fill="#FFFFFF" stroke="none" d="M 530.1626748576241 2171.790482243984 L 520 2176 L 530.1626748576241 2180.209517756016 L 542 2176"/></g><g transform="translate(-182,-2110) scale(1,1)"><path fill="none" stroke="#000000" d="M 530.1626748576241 2171.790482243984 L 520 2176 L 530.1626748576241 2180.209517756016 L 542 2176 L 530.1626748576241 2171.790482243984" stroke-miterlimit="10"/></g><g transform="translate(-182,-2110) scale(1,1)"><rect fill="#C0C0C0" stroke="none" x="1167" y="2335" width="93.20458984375" height="44" opacity="0.2"/></g><g transform="translate(-182,-2110) scale(1,1)"><rect fill="#ffffff" stroke="none" x="1160" y="2328" width="93.20458984375" height="44"/></g><g transform="translate(-182,-2110) scale(1,1)"><path fill="none" stroke="#000000" d="M 1160 2328 L 1253.20458984375 2328 L 1253.20458984375 2372 L 1160 2372 L 1160 2328 Z Z" stroke-miterlimit="10"/></g><g transform="translate(-182,-2110) scale(1,1)"><path fill="none" stroke="#000000" d="M 1160 2353 L 1253.20458984375 2353" stroke-miterlimit="10"/></g><g transform="translate(-182,-2110) scale(1,1)"><path fill="none" stroke="#000000" d="M 1160 2363 L 1253.20458984375 2363" stroke-miterlimit="10"/></g><g transform="translate(-182,-2110) scale(1,1)"><g><path fill="none" stroke="none"/><text fill="#000000" stroke="none" font-family="Arial" font-size="13px" font-style="normal" font-weight="bold" text-decoration="none" x="1169.754150390625" y="2347.5">StateFactory</text></g></g><g transform="translate(-182,-2110) scale(1,1)"><path fill="none" stroke="#000000" d="M 464 2232 L 464 2272 M 464 2272 A 8 8 0 0 0 472 2280 L 1222 2280 M 1222 2280 A 8 8 0 0 1 1230 2288 L 1230 2328" stroke-miterlimit="10"/></g><g transform="translate(-182,-2110) scale(1,1)"><path fill="#FFFFFF" stroke="none" d="M 468.209517756016 2242.162674857624 L 464 2232 L 459.790482243984 2242.162674857624 L 464 2254"/></g><g transform="translate(-182,-2110) scale(1,1)"><path fill="none" stroke="#000000" d="M 468.209517756016 2242.162674857624 L 464 2232 L 459.790482243984 2242.162674857624 L 464 2254 L 468.209517756016 2242.162674857624" stroke-miterlimit="10"/></g><g transform="translate(-182,-2110) scale(1,1)"><rect fill="#C0C0C0" stroke="none" x="319" y="2335" width="102.89453125" height="44" opacity="0.2"/></g><g transform="translate(-182,-2110) scale(1,1)"><rect fill="#ffffff" stroke="none" x="312" y="2328" width="102.89453125" height="44"/></g><g transform="translate(-182,-2110) scale(1,1)"><path fill="none" stroke="#000000" d="M 312 2328 L 414.89453125 2328 L 414.89453125 2372 L 312 2372 L 312 2328 Z Z" stroke-miterlimit="10"/></g><g transform="translate(-182,-2110) scale(1,1)"><path fill="none" stroke="#000000" d="M 312 2353 L 414.89453125 2353" stroke-miterlimit="10"/></g><g transform="translate(-182,-2110) scale(1,1)"><path fill="none" stroke="#000000" d="M 312 2363 L 414.89453125 2363" stroke-miterlimit="10"/></g><g transform="translate(-182,-2110) scale(1,1)"><g><path fill="none" stroke="none"/><text fill="#000000" stroke="none" font-family="Arial" font-size="13px" font-style="normal" font-weight="bold" text-decoration="none" x="319.724609375" y="2347.5">InputGenerator</text></g></g><g transform="translate(-182,-2110) scale(1,1)"><path fill="none" stroke="#000000" d="M 464 2232 L 464 2342 M 464 2342 A 8 8 0 0 1 456 2350 L 415 2350" stroke-miterlimit="10"/></g><g transform="translate(-182,-2110) scale(1,1)"><path fill="#FFFFFF" stroke="none" d="M 468.209517756016 2242.162674857624 L 464 2232 L 459.790482243984 2242.162674857624 L 464 2254"/></g><g transform="translate(-182,-2110) scale(1,1)"><path fill="none" stroke="#000000" d="M 468.209517756016 2242.162674857624 L 464 2232 L 459.790482243984 2242.162674857624 L 464 2254 L 468.209517756016 2242.162674857624" stroke-miterlimit="10"/></g><g transform="translate(-182,-2110) scale(1,1)"><rect fill="#C0C0C0" stroke="none" x="455" y="2335" width="144.10986328125" height="44" opacity="0.2"/></g><g transform="translate(-182,-2110) scale(1,1)"><rect fill="#ffffff" stroke="none" x="448" y="2328" width="144.10986328125" height="44"/></g><g transform="translate(-182,-2110) scale(1,1)"><path fill="none" stroke="#000000" d="M 448 2328 L 592.10986328125 2328 L 592.10986328125 2372 L 448 2372 L 448 2328 Z Z" stroke-miterlimit="10"/></g><g transform="translate(-182,-2110) scale(1,1)"><path fill="none" stroke="#000000" d="M 448 2353 L 592.10986328125 2353" stroke-miterlimit="10"/></g><g transform="translate(-182,-2110) scale(1,1)"><path fill="none" stroke="#000000" d="M 448 2363 L 592.10986328125 2363" stroke-miterlimit="10"/></g><g transform="translate(-182,-2110) scale(1,1)"><g><path fill="none" stroke="none"/><text fill="#000000" stroke="none" font-family="Arial" font-size="13px" font-style="normal" font-weight="bold" text-decoration="none" x="456.46728515625" y="2347.5">AoICoverageResolver</text></g></g><g transform="translate(-182,-2110) scale(1,1)"><path fill="none" stroke="#000000" d="M 464 2232 L 464 2328" stroke-miterlimit="10"/></g><g transform="translate(-182,-2110) scale(1,1)"><path fill="#FFFFFF" stroke="none" d="M 468.209517756016 2242.162674857624 L 464 2232 L 459.790482243984 2242.162674857624 L 464 2254"/></g><g transform="translate(-182,-2110) scale(1,1)"><path fill="none" stroke="#000000" d="M 468.209517756016 2242.162674857624 L 464 2232 L 459.790482243984 2242.162674857624 L 464 2254 L 468.209517756016 2242.162674857624" stroke-miterlimit="10"/></g><g transform="translate(-182,-2110) scale(1,1)"><rect fill="#C0C0C0" stroke="none" x="615" y="2335" width="122.1689453125" height="44" opacity="0.2"/></g><g transform="translate(-182,-2110) scale(1,1)"><rect fill="#ffffff" stroke="none" x="608" y="2328" width="122.1689453125" height="44"/></g><g transform="translate(-182,-2110) scale(1,1)"><path fill="none" stroke="#000000" d="M 608 2328 L 730.1689453125 2328 L 730.1689453125 2372 L 608 2372 L 608 2328 Z Z" stroke-miterlimit="10"/></g><g transform="translate(-182,-2110) scale(1,1)"><path fill="none" stroke="#000000" d="M 608 2353 L 730.1689453125 2353" stroke-miterlimit="10"/></g><g transform="translate(-182,-2110) scale(1,1)"><path fill="none" stroke="#000000" d="M 608 2363 L 730.1689453125 2363" stroke-miterlimit="10"/></g><g transform="translate(-182,-2110) scale(1,1)"><g><path fill="none" stroke="none"/><text fill="#000000" stroke="none" font-family="Arial" font-size="13px" font-style="normal" font-weight="bold" text-decoration="none" x="618.147705078125" y="2347.5">DistanceResolver</text></g></g><g transform="translate(-182,-2110) scale(1,1)"><path fill="none" stroke="#000000" d="M 520 2176 L 632 2176 M 632 2176 A 8 8 0 0 1 640 2184 L 640 2328" stroke-miterlimit="10"/></g><g transform="translate(-182,-2110) scale(1,1)"><path fill="#FFFFFF" stroke="none" d="M 530.1626748576241 2171.790482243984 L 520 2176 L 530.1626748576241 2180.209517756016 L 542 2176"/></g><g transform="translate(-182,-2110) scale(1,1)"><path fill="none" stroke="#000000" d="M 530.1626748576241 2171.790482243984 L 520 2176 L 530.1626748576241 2180.209517756016 L 542 2176 L 530.1626748576241 2171.790482243984" stroke-miterlimit="10"/></g><g transform="translate(-182,-2110) scale(1,1)"><rect fill="#C0C0C0" stroke="none" x="751" y="2335" width="136.83544921875" height="44" opacity="0.2"/></g><g transform="translate(-182,-2110) scale(1,1)"><rect fill="#ffffff" stroke="none" x="744" y="2328" width="136.83544921875" height="44"/></g><g transform="translate(-182,-2110) scale(1,1)"><path fill="none" stroke="#000000" d="M 744 2328 L 880.83544921875 2328 L 880.83544921875 2372 L 744 2372 L 744 2328 Z Z" stroke-miterlimit="10"/></g><g transform="translate(-182,-2110) scale(1,1)"><path fill="none" stroke="#000000" d="M 744 2353 L 880.83544921875 2353" stroke-miterlimit="10"/></g><g transform="translate(-182,-2110) scale(1,1)"><path fill="none" stroke="#000000" d="M 744 2363 L 880.83544921875 2363" stroke-miterlimit="10"/></g><g transform="translate(-182,-2110) scale(1,1)"><g><path fill="none" stroke="none"/><text fill="#000000" stroke="none" font-family="Arial" font-size="13px" font-style="normal" font-weight="bold" text-decoration="none" x="752.806884765625" y="2347.5">CarLikeMotionModel</text></g></g><g transform="translate(-182,-2110) scale(1,1)"><path fill="none" stroke="#000000" d="M 464 2232 L 464 2240 M 464 2240 A 8 8 0 0 0 472 2248 L 736 2248 M 736 2248 A 8 8 0 0 1 744 2256 L 744 2328" stroke-miterlimit="10"/></g><g transform="translate(-182,-2110) scale(1,1)"><path fill="#FFFFFF" stroke="none" d="M 468.209517756016 2242.162674857624 L 464 2232 L 459.790482243984 2242.162674857624 L 464 2254"/></g><g transform="translate(-182,-2110) scale(1,1)"><path fill="none" stroke="#000000" d="M 468.209517756016 2242.162674857624 L 464 2232 L 459.790482243984 2242.162674857624 L 464 2254 L 468.209517756016 2242.162674857624" stroke-miterlimit="10"/></g><g transform="translate(-182,-2110) scale(1,1)"><rect fill="#C0C0C0" stroke="none" x="903" y="2423" width="120.1689453125" height="44" opacity="0.2"/></g><g transform="translate(-182,-2110) scale(1,1)"><rect fill="#ffffff" stroke="none" x="896" y="2416" width="120.1689453125" height="44"/></g><g transform="translate(-182,-2110) scale(1,1)"><path fill="none" stroke="#000000" d="M 896 2416 L 1016.1689453125 2416 L 1016.1689453125 2460 L 896 2460 L 896 2416 Z Z" stroke-miterlimit="10"/></g><g transform="translate(-182,-2110) scale(1,1)"><path fill="none" stroke="#000000" d="M 896 2441 L 1016.1689453125 2441" stroke-miterlimit="10"/></g><g transform="translate(-182,-2110) scale(1,1)"><path fill="none" stroke="#000000" d="M 896 2451 L 1016.1689453125 2451" stroke-miterlimit="10"/></g><g transform="translate(-182,-2110) scale(1,1)"><g><path fill="none" stroke="none"/><text fill="#000000" stroke="none" font-family="Arial" font-size="13px" font-style="normal" font-weight="bold" text-decoration="none" x="906.95361328125" y="2435.5">CollisionDetector</text></g></g><g transform="translate(-182,-2110) scale(1,1)"><path fill="none" stroke="#000000" d="M 432 2232 L 432 2430 M 432 2430 A 8 8 0 0 0 440 2438 L 896 2438" stroke-miterlimit="10"/></g><g transform="translate(-182,-2110) scale(1,1)"><path fill="#FFFFFF" stroke="none" d="M 436.209517756016 2242.162674857624 L 432 2232 L 427.790482243984 2242.162674857624 L 432 2254"/></g><g transform="translate(-182,-2110) scale(1,1)"><path fill="none" stroke="#000000" d="M 436.209517756016 2242.162674857624 L 432 2232 L 427.790482243984 2242.162674857624 L 432 2254 L 436.209517756016 2242.162674857624" stroke-miterlimit="10"/></g><g transform="translate(-182,-2110) scale(1,1)"><rect fill="#C0C0C0" stroke="none" x="903" y="2335" width="119.1689453125" height="44" opacity="0.2"/></g><g transform="translate(-182,-2110) scale(1,1)"><rect fill="#ffffff" stroke="none" x="896" y="2328" width="119.1689453125" height="44"/></g><g transform="translate(-182,-2110) scale(1,1)"><path fill="none" stroke="#000000" d="M 896 2328 L 1015.1689453125 2328 L 1015.1689453125 2372 L 896 2372 L 896 2328 Z Z" stroke-miterlimit="10"/></g><g transform="translate(-182,-2110) scale(1,1)"><path fill="none" stroke="#000000" d="M 896 2353 L 1015.1689453125 2353" stroke-miterlimit="10"/></g><g transform="translate(-182,-2110) scale(1,1)"><path fill="none" stroke="#000000" d="M 896 2363 L 1015.1689453125 2363" stroke-miterlimit="10"/></g><g transform="translate(-182,-2110) scale(1,1)"><g><path fill="none" stroke="none"/><text fill="#000000" stroke="none" font-family="Arial" font-size="13px" font-style="normal" font-weight="bold" text-decoration="none" x="919.450439453125" y="2347.5">PathHandler</text></g></g><g transform="translate(-182,-2110) scale(1,1)"><path fill="none" stroke="#000000" d="M 464 2232 L 464 2256 M 464 2256 A 8 8 0 0 0 472 2264 L 912 2264 M 912 2264 A 8 8 0 0 1 920 2272 L 920 2328" stroke-miterlimit="10"/></g><g transform="translate(-182,-2110) scale(1,1)"><path fill="#FFFFFF" stroke="none" d="M 468.209517756016 2242.162674857624 L 464 2232 L 459.790482243984 2242.162674857624 L 464 2254"/></g><g transform="translate(-182,-2110) scale(1,1)"><path fill="none" stroke="#000000" d="M 468.209517756016 2242.162674857624 L 464 2232 L 459.790482243984 2242.162674857624 L 464 2254 L 468.209517756016 2242.162674857624" stroke-miterlimit="10"/></g><g transform="translate(-182,-2110) scale(1,1)"><rect fill="#C0C0C0" stroke="none" x="1039" y="2335" width="118.1689453125" height="44" opacity="0.2"/></g><g transform="translate(-182,-2110) scale(1,1)"><rect fill="#ffffff" stroke="none" x="1032" y="2328" width="118.1689453125" height="44"/></g><g transform="translate(-182,-2110) scale(1,1)"><path fill="none" stroke="#000000" d="M 1032 2328 L 1150.1689453125 2328 L 1150.1689453125 2372 L 1032 2372 L 1032 2328 Z Z" stroke-miterlimit="10"/></g><g transform="translate(-182,-2110) scale(1,1)"><path fill="none" stroke="#000000" d="M 1032 2353 L 1150.1689453125 2353" stroke-miterlimit="10"/></g><g transform="translate(-182,-2110) scale(1,1)"><path fill="none" stroke="#000000" d="M 1032 2363 L 1150.1689453125 2363" stroke-miterlimit="10"/></g><g transform="translate(-182,-2110) scale(1,1)"><g><path fill="none" stroke="none"/><text fill="#000000" stroke="none" font-family="Arial" font-size="13px" font-style="normal" font-weight="bold" text-decoration="none" x="1065.43994140625" y="2347.5">Persister</text></g></g><g transform="translate(-182,-2110) scale(1,1)"><path fill="none" stroke="#000000" d="M 464 2232 L 464 2304 M 464 2304 A 8 8 0 0 0 472 2312 L 1083 2312 M 1083 2312 A 8 8 0 0 1 1091 2320 L 1091 2328" stroke-miterlimit="10"/></g><g transform="translate(-182,-2110) scale(1,1)"><path fill="#FFFFFF" stroke="none" d="M 468.209517756016 2242.162674857624 L 464 2232 L 459.790482243984 2242.162674857624 L 464 2254"/></g><g transform="translate(-182,-2110) scale(1,1)"><path fill="none" stroke="#000000" d="M 468.209517756016 2242.162674857624 L 464 2232 L 459.790482243984 2242.162674857624 L 464 2254 L 468.209517756016 2242.162674857624" stroke-miterlimit="10"/></g><g transform="translate(-182,-2110) scale(1,1)"><path fill="none" stroke="#000000" d="M 1230 2372 L 1230 2582 M 1230 2582 A 8 8 0 0 1 1222 2590 L 678 2590" stroke-miterlimit="10"/></g><g transform="translate(-182,-2110) scale(1,1)"><path fill="#FFFFFF" stroke="none" d="M 1234.2095177560159 2382.162674857624 L 1230 2372 L 1225.7904822439841 2382.162674857624 L 1230 2394"/></g><g transform="translate(-182,-2110) scale(1,1)"><path fill="none" stroke="#000000" d="M 1234.2095177560159 2382.162674857624 L 1230 2372 L 1225.7904822439841 2382.162674857624 L 1230 2394 L 1234.2095177560159 2382.162674857624" stroke-miterlimit="10"/></g><g transform="translate(-182,-2110) scale(1,1)"><path fill="none" stroke="#000000" d="M 666 2372 L 666 2560" stroke-miterlimit="10"/></g><g transform="translate(-182,-2110) scale(1,1)"><path fill="#FFFFFF" stroke="none" d="M 670.209517756016 2382.162674857624 L 666 2372 L 661.790482243984 2382.162674857624 L 666 2394"/></g><g transform="translate(-182,-2110) scale(1,1)"><path fill="none" stroke="#000000" d="M 670.209517756016 2382.162674857624 L 666 2372 L 661.790482243984 2382.162674857624 L 666 2394 L 670.209517756016 2382.162674857624" stroke-miterlimit="10"/></g><g transform="translate(-182,-2110) scale(1,1)"><rect fill="#C0C0C0" stroke="none" x="351" y="2463" width="119.5126953125" height="44" opacity="0.2"/></g><g transform="translate(-182,-2110) scale(1,1)"><rect fill="#ffffff" stroke="none" x="344" y="2456" width="119.5126953125" height="44"/></g><g transform="translate(-182,-2110) scale(1,1)"><path fill="none" stroke="#000000" d="M 344 2456 L 463.5126953125 2456 L 463.5126953125 2500 L 344 2500 L 344 2456 Z Z" stroke-miterlimit="10"/></g><g transform="translate(-182,-2110) scale(1,1)"><path fill="none" stroke="#000000" d="M 344 2481 L 463.5126953125 2481" stroke-miterlimit="10"/></g><g transform="translate(-182,-2110) scale(1,1)"><path fill="none" stroke="#000000" d="M 344 2491 L 463.5126953125 2491" stroke-miterlimit="10"/></g><g transform="translate(-182,-2110) scale(1,1)"><g><path fill="none" stroke="none"/><text fill="#000000" stroke="none" font-family="Arial" font-size="13px" font-style="normal" font-weight="bold" text-decoration="none" x="351.73095703125" y="2475.5">NTupletGenerator</text></g></g><g transform="translate(-182,-2110) scale(1,1)"><path fill="none" stroke="#000000" d="M 318 2372 L 318 2456 M 318 2456 A 8 8 0 0 0 326 2464 L 344 2464" stroke-miterlimit="10"/></g><g transform="translate(-182,-2110) scale(1,1)"><path fill="#FFFFFF" stroke="none" d="M 322.209517756016 2382.162674857624 L 318 2372 L 313.790482243984 2382.162674857624 L 318 2394"/></g><g transform="translate(-182,-2110) scale(1,1)"><path fill="none" stroke="#000000" d="M 322.209517756016 2382.162674857624 L 318 2372 L 313.790482243984 2382.162674857624 L 318 2394 L 322.209517756016 2382.162674857624" stroke-miterlimit="10"/></g><g transform="translate(-182,-2110) scale(1,1)"><path fill="none" stroke="#000000" d="M 807 2372 L 807 2582 M 807 2582 A 8 8 0 0 1 799 2590 L 678 2590" stroke-miterlimit="10"/></g><g transform="translate(-182,-2110) scale(1,1)"><path fill="#FFFFFF" stroke="none" d="M 811.209517756016 2382.162674857624 L 807 2372 L 802.790482243984 2382.162674857624 L 807 2394"/></g><g transform="translate(-182,-2110) scale(1,1)"><path fill="none" stroke="#000000" d="M 811.209517756016 2382.162674857624 L 807 2372 L 802.790482243984 2382.162674857624 L 807 2394 L 811.209517756016 2382.162674857624" stroke-miterlimit="10"/></g><g transform="translate(-182,-2110) scale(1,1)"><path fill="none" stroke="#000000" d="M 964 2460 L 964 2582 M 964 2582 A 8 8 0 0 1 956 2590 L 678 2590" stroke-miterlimit="10"/></g><g transform="translate(-182,-2110) scale(1,1)"><path fill="#FFFFFF" stroke="none" d="M 968.209517756016 2470.162674857624 L 964 2460 L 959.790482243984 2470.162674857624 L 964 2482"/></g><g transform="translate(-182,-2110) scale(1,1)"><path fill="none" stroke="#000000" d="M 968.209517756016 2470.162674857624 L 964 2460 L 959.790482243984 2470.162674857624 L 964 2482 L 968.209517756016 2470.162674857624" stroke-miterlimit="10"/></g><g transform="translate(-182,-2110) scale(1,1)"><path fill="none" stroke="#000000" d="M 981 2372 L 981 2416" stroke-miterlimit="10"/></g><g transform="translate(-182,-2110) scale(1,1)"><path fill="#FFFFFF" stroke="none" d="M 985.209517756016 2382.162674857624 L 981 2372 L 976.790482243984 2382.162674857624 L 981 2394"/></g><g transform="translate(-182,-2110) scale(1,1)"><path fill="none" stroke="#000000" d="M 985.209517756016 2382.162674857624 L 981 2372 L 976.790482243984 2382.162674857624 L 981 2394 L 985.209517756016 2382.162674857624" stroke-miterlimit="10"/></g></g></svg>