<svg version="1.1" xmlns="http://www.w3.org/2000/svg" xmlns:xlink="http://www.w3.org/1999/xlink" width="1017.20458984375" height="564"><defs/><g><g transform="translate(-190,-2110) scale(1,1)"><rect fill="#C0C0C0" stroke="none" x="415" y="2127" width="112" height="112" opacity="0.2"/></g><g transform="translate(-190,-2110) scale(1,1)"><rect fill="#ffffff" stroke="none" x="408" y="2120" width="112" height="112"/></g><g transform="translate(-190,-2110) scale(1,1)"><path fill="none" stroke="#000000" d="M 408 2120 L 520 2120 L 520 2232 L 408 2232 L 408 2120 Z Z" stroke-miterlimit="10"/></g><g transform="translate(-190,-2110) scale(1,1)"><path fill="none" stroke="#000000" d="M 408 2145 L 520 2145" stroke-miterlimit="10"/></g><g transform="translate(-190,-2110) scale(1,1)"><path fill="none" stroke="#000000" d="M 408 2155 L 520 2155" stroke-miterlimit="10"/></g><g transform="translate(-190,-2110) scale(1,1)"><g><path fill="none" stroke="none"/><text fill="#000000" stroke="none" font-family="Arial" font-size="13px" font-style="normal" font-weight="bold" text-decoration="none" x="449.911376953125" y="2139.5">Core</text></g></g><g transform="translate(-190,-2110) scale(1,1)"><rect fill="#C0C0C0" stroke="none" x="215" y="2335" width="74.74267578125" height="44" opacity="0.2"/></g><g transform="translate(-190,-2110) scale(1,1)"><rect fill="#ffffff" stroke="none" x="208" y="2328" width="74.74267578125" height="44"/></g><g transform="translate(-190,-2110) scale(1,1)"><path fill="none" stroke="#000000" d="M 208 2328 L 282.74267578125 2328 L 282.74267578125 2372 L 208 2372 L 208 2328 Z Z" stroke-miterlimit="10"/></g><g transform="translate(-190,-2110) scale(1,1)"><path fill="none" stroke="#000000" d="M 208 2353 L 282.74267578125 2353" stroke-miterlimit="10"/></g><g transform="translate(-190,-2110) scale(1,1)"><path fill="none" stroke="#000000" d="M 208 2363 L 282.74267578125 2363" stroke-miterlimit="10"/></g><g transform="translate(-190,-2110) scale(1,1)"><g><path fill="none" stroke="none"/><text fill="#000000" stroke="none" font-family="Arial" font-size="13px" font-style="normal" font-weight="bold" text-decoration="none" x="214.30908203125" y="2347.5">GuiDrawer</text></g></g><g transform="translate(-190,-2110) scale(1,1)"><path fill="none" stroke="#000000" d="M 408 2232 L 261 2232 M 261 2232 A 8 8 0 0 1 253 2224 L 253 2200" stroke-miterlimit="10"/></g><g transform="translate(-190,-2110) scale(1,1)"><path fill="#FFFFFF" stroke="none" d="M 397.83732514237585 2236.209517756016 L 408 2232 L 397.83732514237585 2227.790482243984 L 386 2232"/></g><g transform="translate(-190,-2110) scale(1,1)"><path fill="none" stroke="#000000" d="M 397.83732514237585 2236.209517756016 L 408 2232 L 397.83732514237585 2227.790482243984 L 386 2232 L 397.83732514237585 2236.209517756016" stroke-miterlimit="10"/></g><g transform="translate(-190,-2110) scale(1,1)"><rect fill="#C0C0C0" stroke="none" x="687" y="2495" width="94.20458984375" height="44" opacity="0.2"/></g><g transform="translate(-190,-2110) scale(1,1)"><rect fill="#ffffff" stroke="none" x="680" y="2488" width="94.20458984375" height="44"/></g><g transform="translate(-190,-2110) scale(1,1)"><path fill="none" stroke="#000000" d="M 680 2488 L 774.20458984375 2488 L 774.20458984375 2532 L 680 2532 L 680 2488 Z Z" stroke-miterlimit="10"/></g><g transform="translate(-190,-2110) scale(1,1)"><path fill="none" stroke="#000000" d="M 680 2513 L 774.20458984375 2513" stroke-miterlimit="10"/></g><g transform="translate(-190,-2110) scale(1,1)"><path fill="none" stroke="#000000" d="M 680 2523 L 774.20458984375 2523" stroke-miterlimit="10"/></g><g transform="translate(-190,-2110) scale(1,1)"><g><path fill="none" stroke="none"/><text fill="#000000" stroke="none" font-family="Arial" font-size="13px" font-style="normal" font-weight="bold" text-decoration="none" x="688.438720703125" y="2507.5">Configuration</text></g></g><g transform="translate(-190,-2110) scale(1,1)"><path fill="none" stroke="#000000" d="M 520 2176 L 728 2176 M 728 2176 A 8 8 0 0 1 736 2184 L 736 2488" stroke-miterlimit="10"/></g><g transform="translate(-190,-2110) scale(1,1)"><path fill="#FFFFFF" stroke="none" d="M 530.1626748576241 2171.790482243984 L 520 2176 L 530.1626748576241 2180.209517756016 L 542 2176"/></g><g transform="translate(-190,-2110) scale(1,1)"><path fill="none" stroke="#000000" d="M 530.1626748576241 2171.790482243984 L 520 2176 L 530.1626748576241 2180.209517756016 L 542 2176 L 530.1626748576241 2171.790482243984" stroke-miterlimit="10"/></g><g transform="translate(-190,-2110) scale(1,1)"><rect fill="#C0C0C0" stroke="none" x="1111" y="2407" width="93.20458984375" height="44" opacity="0.2"/></g><g transform="translate(-190,-2110) scale(1,1)"><rect fill="#ffffff" stroke="none" x="1104" y="2400" width="93.20458984375" height="44"/></g><g transform="translate(-190,-2110) scale(1,1)"><path fill="none" stroke="#000000" d="M 1104 2400 L 1197.20458984375 2400 L 1197.20458984375 2444 L 1104 2444 L 1104 2400 Z Z" stroke-miterlimit="10"/></g><g transform="translate(-190,-2110) scale(1,1)"><path fill="none" stroke="#000000" d="M 1104 2425 L 1197.20458984375 2425" stroke-miterlimit="10"/></g><g transform="translate(-190,-2110) scale(1,1)"><path fill="none" stroke="#000000" d="M 1104 2435 L 1197.20458984375 2435" stroke-miterlimit="10"/></g><g transform="translate(-190,-2110) scale(1,1)"><g><path fill="none" stroke="none"/><text fill="#000000" stroke="none" font-family="Arial" font-size="13px" font-style="normal" font-weight="bold" text-decoration="none" x="1113.754150390625" y="2419.5">StateFactory</text></g></g><g transform="translate(-190,-2110) scale(1,1)"><path fill="none" stroke="#000000" d="M 464 2232 L 464 2272 M 464 2272 A 8 8 0 0 0 472 2280 L 1152 2280 M 1152 2280 A 8 8 0 0 1 1160 2288 L 1160 2400" stroke-miterlimit="10"/></g><g transform="translate(-190,-2110) scale(1,1)"><path fill="#FFFFFF" stroke="none" d="M 468.209517756016 2242.162674857624 L 464 2232 L 459.790482243984 2242.162674857624 L 464 2254"/></g><g transform="translate(-190,-2110) scale(1,1)"><path fill="none" stroke="#000000" d="M 468.209517756016 2242.162674857624 L 464 2232 L 459.790482243984 2242.162674857624 L 464 2254 L 468.209517756016 2242.162674857624" stroke-miterlimit="10"/></g><g transform="translate(-190,-2110) scale(1,1)"><rect fill="#C0C0C0" stroke="none" x="319" y="2335" width="102.89453125" height="44" opacity="0.2"/></g><g transform="translate(-190,-2110) scale(1,1)"><rect fill="#ffffff" stroke="none" x="312" y="2328" width="102.89453125" height="44"/></g><g transform="translate(-190,-2110) scale(1,1)"><path fill="none" stroke="#000000" d="M 312 2328 L 414.89453125 2328 L 414.89453125 2372 L 312 2372 L 312 2328 Z Z" stroke-miterlimit="10"/></g><g transform="translate(-190,-2110) scale(1,1)"><path fill="none" stroke="#000000" d="M 312 2353 L 414.89453125 2353" stroke-miterlimit="10"/></g><g transform="translate(-190,-2110) scale(1,1)"><path fill="none" stroke="#000000" d="M 312 2363 L 414.89453125 2363" stroke-miterlimit="10"/></g><g transform="translate(-190,-2110) scale(1,1)"><g><path fill="none" stroke="none"/><text fill="#000000" stroke="none" font-family="Arial" font-size="13px" font-style="normal" font-weight="bold" text-decoration="none" x="319.724609375" y="2347.5">InputGenerator</text></g></g><g transform="translate(-190,-2110) scale(1,1)"><path fill="none" stroke="#000000" d="M 464 2232 L 464 2280 M 464 2280 A 8 8 0 0 1 456 2288 L 371 2288 M 371 2288 A 8 8 0 0 0 363 2296 L 363 2328" stroke-miterlimit="10"/></g><g transform="translate(-190,-2110) scale(1,1)"><path fill="#FFFFFF" stroke="none" d="M 468.209517756016 2242.162674857624 L 464 2232 L 459.790482243984 2242.162674857624 L 464 2254"/></g><g transform="translate(-190,-2110) scale(1,1)"><path fill="none" stroke="#000000" d="M 468.209517756016 2242.162674857624 L 464 2232 L 459.790482243984 2242.162674857624 L 464 2254 L 468.209517756016 2242.162674857624" stroke-miterlimit="10"/></g><g transform="translate(-190,-2110) scale(1,1)"><rect fill="#C0C0C0" stroke="none" x="455" y="2335" width="144.10986328125" height="44" opacity="0.2"/></g><g transform="translate(-190,-2110) scale(1,1)"><rect fill="#ffffff" stroke="none" x="448" y="2328" width="144.10986328125" height="44"/></g><g transform="translate(-190,-2110) scale(1,1)"><path fill="none" stroke="#000000" d="M 448 2328 L 592.10986328125 2328 L 592.10986328125 2372 L 448 2372 L 448 2328 Z Z" stroke-miterlimit="10"/></g><g transform="translate(-190,-2110) scale(1,1)"><path fill="none" stroke="#000000" d="M 448 2353 L 592.10986328125 2353" stroke-miterlimit="10"/></g><g transform="translate(-190,-2110) scale(1,1)"><path fill="none" stroke="#000000" d="M 448 2363 L 592.10986328125 2363" stroke-miterlimit="10"/></g><g transform="translate(-190,-2110) scale(1,1)"><g><path fill="none" stroke="none"/><text fill="#000000" stroke="none" font-family="Arial" font-size="13px" font-style="normal" font-weight="bold" text-decoration="none" x="456.46728515625" y="2347.5">AoICoverageResolver</text></g></g><g transform="translate(-190,-2110) scale(1,1)"><path fill="none" stroke="#000000" d="M 464 2232 L 464 2328" stroke-miterlimit="10"/></g><g transform="translate(-190,-2110) scale(1,1)"><path fill="#FFFFFF" stroke="none" d="M 468.209517756016 2242.162674857624 L 464 2232 L 459.790482243984 2242.162674857624 L 464 2254"/></g><g transform="translate(-190,-2110) scale(1,1)"><path fill="none" stroke="#000000" d="M 468.209517756016 2242.162674857624 L 464 2232 L 459.790482243984 2242.162674857624 L 464 2254 L 468.209517756016 2242.162674857624" stroke-miterlimit="10"/></g><g transform="translate(-190,-2110) scale(1,1)"><rect fill="#C0C0C0" stroke="none" x="615" y="2335" width="122.1689453125" height="44" opacity="0.2"/></g><g transform="translate(-190,-2110) scale(1,1)"><rect fill="#ffffff" stroke="none" x="608" y="2328" width="122.1689453125" height="44"/></g><g transform="translate(-190,-2110) scale(1,1)"><path fill="none" stroke="#000000" d="M 608 2328 L 730.1689453125 2328 L 730.1689453125 2372 L 608 2372 L 608 2328 Z Z" stroke-miterlimit="10"/></g><g transform="translate(-190,-2110) scale(1,1)"><path fill="none" stroke="#000000" d="M 608 2353 L 730.1689453125 2353" stroke-miterlimit="10"/></g><g transform="translate(-190,-2110) scale(1,1)"><path fill="none" stroke="#000000" d="M 608 2363 L 730.1689453125 2363" stroke-miterlimit="10"/></g><g transform="translate(-190,-2110) scale(1,1)"><g><path fill="none" stroke="none"/><text fill="#000000" stroke="none" font-family="Arial" font-size="13px" font-style="normal" font-weight="bold" text-decoration="none" x="618.147705078125" y="2347.5">DistanceResolver</text></g></g><g transform="translate(-190,-2110) scale(1,1)"><path fill="none" stroke="#000000" d="M 520 2176 L 632 2176 M 632 2176 A 8 8 0 0 1 640 2184 L 640 2328" stroke-miterlimit="10"/></g><g transform="translate(-190,-2110) scale(1,1)"><path fill="#FFFFFF" stroke="none" d="M 530.1626748576241 2171.790482243984 L 520 2176 L 530.1626748576241 2180.209517756016 L 542 2176"/></g><g transform="translate(-190,-2110) scale(1,1)"><path fill="none" stroke="#000000" d="M 530.1626748576241 2171.790482243984 L 520 2176 L 530.1626748576241 2180.209517756016 L 542 2176 L 530.1626748576241 2171.790482243984" stroke-miterlimit="10"/></g><g transform="translate(-190,-2110) scale(1,1)"><rect fill="#C0C0C0" stroke="none" x="751" y="2335" width="136.83544921875" height="44" opacity="0.2"/></g><g transform="translate(-190,-2110) scale(1,1)"><rect fill="#ffffff" stroke="none" x="744" y="2328" width="136.83544921875" height="44"/></g><g transform="translate(-190,-2110) scale(1,1)"><path fill="none" stroke="#000000" d="M 744 2328 L 880.83544921875 2328 L 880.83544921875 2372 L 744 2372 L 744 2328 Z Z" stroke-miterlimit="10"/></g><g transform="translate(-190,-2110) scale(1,1)"><path fill="none" stroke="#000000" d="M 744 2353 L 880.83544921875 2353" stroke-miterlimit="10"/></g><g transform="translate(-190,-2110) scale(1,1)"><path fill="none" stroke="#000000" d="M 744 2363 L 880.83544921875 2363" stroke-miterlimit="10"/></g><g transform="translate(-190,-2110) scale(1,1)"><g><path fill="none" stroke="none"/><text fill="#000000" stroke="none" font-family="Arial" font-size="13px" font-style="normal" font-weight="bold" text-decoration="none" x="752.806884765625" y="2347.5">CarLikeMotionModel</text></g></g><g transform="translate(-190,-2110) scale(1,1)"><path fill="none" stroke="#000000" d="M 464 2232 L 464 2240 M 464 2240 A 8 8 0 0 0 472 2248 L 736 2248 M 736 2248 A 8 8 0 0 1 744 2256 L 744 2328" stroke-miterlimit="10"/></g><g transform="translate(-190,-2110) scale(1,1)"><path fill="#FFFFFF" stroke="none" d="M 468.209517756016 2242.162674857624 L 464 2232 L 459.790482243984 2242.162674857624 L 464 2254"/></g><g transform="translate(-190,-2110) scale(1,1)"><path fill="none" stroke="#000000" d="M 468.209517756016 2242.162674857624 L 464 2232 L 459.790482243984 2242.162674857624 L 464 2254 L 468.209517756016 2242.162674857624" stroke-miterlimit="10"/></g><g transform="translate(-190,-2110) scale(1,1)"><rect fill="#C0C0C0" stroke="none" x="903" y="2423" width="120.1689453125" height="44" opacity="0.2"/></g><g transform="translate(-190,-2110) scale(1,1)"><rect fill="#ffffff" stroke="none" x="896" y="2416" width="120.1689453125" height="44"/></g><g transform="translate(-190,-2110) scale(1,1)"><path fill="none" stroke="#000000" d="M 896 2416 L 1016.1689453125 2416 L 1016.1689453125 2460 L 896 2460 L 896 2416 Z Z" stroke-miterlimit="10"/></g><g transform="translate(-190,-2110) scale(1,1)"><path fill="none" stroke="#000000" d="M 896 2441 L 1016.1689453125 2441" stroke-miterlimit="10"/></g><g transform="translate(-190,-2110) scale(1,1)"><path fill="none" stroke="#000000" d="M 896 2451 L 1016.1689453125 2451" stroke-miterlimit="10"/></g><g transform="translate(-190,-2110) scale(1,1)"><g><path fill="none" stroke="none"/><text fill="#000000" stroke="none" font-family="Arial" font-size="13px" font-style="normal" font-weight="bold" text-decoration="none" x="906.95361328125" y="2435.5">CollisionDetector</text></g></g><g transform="translate(-190,-2110) scale(1,1)"><path fill="none" stroke="#000000" d="M 432 2232 L 432 2430 M 432 2430 A 8 8 0 0 0 440 2438 L 896 2438" stroke-miterlimit="10"/></g><g transform="translate(-190,-2110) scale(1,1)"><path fill="#FFFFFF" stroke="none" d="M 436.209517756016 2242.162674857624 L 432 2232 L 427.790482243984 2242.162674857624 L 432 2254"/></g><g transform="translate(-190,-2110) scale(1,1)"><path fill="none" stroke="#000000" d="M 436.209517756016 2242.162674857624 L 432 2232 L 427.790482243984 2242.162674857624 L 432 2254 L 436.209517756016 2242.162674857624" stroke-miterlimit="10"/></g><g transform="translate(-190,-2110) scale(1,1)"><rect fill="#C0C0C0" stroke="none" x="903" y="2335" width="119.1689453125" height="44" opacity="0.2"/></g><g transform="translate(-190,-2110) scale(1,1)"><rect fill="#ffffff" stroke="none" x="896" y="2328" width="119.1689453125" height="44"/></g><g transform="translate(-190,-2110) scale(1,1)"><path fill="none" stroke="#000000" d="M 896 2328 L 1015.1689453125 2328 L 1015.1689453125 2372 L 896 2372 L 896 2328 Z Z" stroke-miterlimit="10"/></g><g transform="translate(-190,-2110) scale(1,1)"><path fill="none" stroke="#000000" d="M 896 2353 L 1015.1689453125 2353" stroke-miterlimit="10"/></g><g transform="translate(-190,-2110) scale(1,1)"><path fill="none" stroke="#000000" d="M 896 2363 L 1015.1689453125 2363" stroke-miterlimit="10"/></g><g transform="translate(-190,-2110) scale(1,1)"><g><path fill="none" stroke="none"/><text fill="#000000" stroke="none" font-family="Arial" font-size="13px" font-style="normal" font-weight="bold" text-decoration="none" x="919.450439453125" y="2347.5">PathHandler</text></g></g><g transform="translate(-190,-2110) scale(1,1)"><path fill="none" stroke="#000000" d="M 464 2232 L 464 2256 M 464 2256 A 8 8 0 0 0 472 2264 L 912 2264 M 912 2264 A 8 8 0 0 1 920 2272 L 920 2328" stroke-miterlimit="10"/></g><g transform="translate(-190,-2110) scale(1,1)"><path fill="#FFFFFF" stroke="none" d="M 468.209517756016 2242.162674857624 L 464 2232 L 459.790482243984 2242.162674857624 L 464 2254"/></g><g transform="translate(-190,-2110) scale(1,1)"><path fill="none" stroke="#000000" d="M 468.209517756016 2242.162674857624 L 464 2232 L 459.790482243984 2242.162674857624 L 464 2254 L 468.209517756016 2242.162674857624" stroke-miterlimit="10"/></g><g transform="translate(-190,-2110) scale(1,1)"><rect fill="#C0C0C0" stroke="none" x="1039" y="2335" width="118.1689453125" height="44" opacity="0.2"/></g><g transform="translate(-190,-2110) scale(1,1)"><rect fill="#ffffff" stroke="none" x="1032" y="2328" width="118.1689453125" height="44"/></g><g transform="translate(-190,-2110) scale(1,1)"><path fill="none" stroke="#000000" d="M 1032 2328 L 1150.1689453125 2328 L 1150.1689453125 2372 L 1032 2372 L 1032 2328 Z Z" stroke-miterlimit="10"/></g><g transform="translate(-190,-2110) scale(1,1)"><path fill="none" stroke="#000000" d="M 1032 2353 L 1150.1689453125 2353" stroke-miterlimit="10"/></g><g transform="translate(-190,-2110) scale(1,1)"><path fill="none" stroke="#000000" d="M 1032 2363 L 1150.1689453125 2363" stroke-miterlimit="10"/></g><g transform="translate(-190,-2110) scale(1,1)"><g><path fill="none" stroke="none"/><text fill="#000000" stroke="none" font-family="Arial" font-size="13px" font-style="normal" font-weight="bold" text-decoration="none" x="1065.43994140625" y="2347.5">Persister</text></g></g><g transform="translate(-190,-2110) scale(1,1)"><path fill="none" stroke="#000000" d="M 464 2232 L 464 2304 M 464 2304 A 8 8 0 0 0 472 2312 L 1083 2312 M 1083 2312 A 8 8 0 0 1 1091 2320 L 1091 2328" stroke-miterlimit="10"/></g><g transform="translate(-190,-2110) scale(1,1)"><path fill="#FFFFFF" stroke="none" d="M 468.209517756016 2242.162674857624 L 464 2232 L 459.790482243984 2242.162674857624 L 464 2254"/></g><g transform="translate(-190,-2110) scale(1,1)"><path fill="none" stroke="#000000" d="M 468.209517756016 2242.162674857624 L 464 2232 L 459.790482243984 2242.162674857624 L 464 2254 L 468.209517756016 2242.162674857624" stroke-miterlimit="10"/></g><g transform="translate(-190,-2110) scale(1,1)"><path fill="none" stroke="#000000" d="M 1150 2444 L 1150 2510 M 1150 2510 A 8 8 0 0 1 1142 2518 L 774 2518" stroke-miterlimit="10"/></g><g transform="translate(-190,-2110) scale(1,1)"><path fill="#FFFFFF" stroke="none" d="M 1154.2095177560159 2454.162674857624 L 1150 2444 L 1145.7904822439841 2454.162674857624 L 1150 2466"/></g><g transform="translate(-190,-2110) scale(1,1)"><path fill="none" stroke="#000000" d="M 1154.2095177560159 2454.162674857624 L 1150 2444 L 1145.7904822439841 2454.162674857624 L 1150 2466 L 1154.2095177560159 2454.162674857624" stroke-miterlimit="10"/></g><g transform="translate(-190,-2110) scale(1,1)"><path fill="none" stroke="#000000" d="M 666 2372 L 666 2488 M 666 2488 A 8 8 0 0 0 674 2496 L 680 2496" stroke-miterlimit="10"/></g><g transform="translate(-190,-2110) scale(1,1)"><path fill="#FFFFFF" stroke="none" d="M 670.209517756016 2382.162674857624 L 666 2372 L 661.790482243984 2382.162674857624 L 666 2394"/></g><g transform="translate(-190,-2110) scale(1,1)"><path fill="none" stroke="#000000" d="M 670.209517756016 2382.162674857624 L 666 2372 L 661.790482243984 2382.162674857624 L 666 2394 L 670.209517756016 2382.162674857624" stroke-miterlimit="10"/></g><g transform="translate(-190,-2110) scale(1,1)"><rect fill="#C0C0C0" stroke="none" x="295" y="2463" width="119.5126953125" height="44" opacity="0.2"/></g><g transform="translate(-190,-2110) scale(1,1)"><rect fill="#ffffff" stroke="none" x="288" y="2456" width="119.5126953125" height="44"/></g><g transform="translate(-190,-2110) scale(1,1)"><path fill="none" stroke="#000000" d="M 288 2456 L 407.5126953125 2456 L 407.5126953125 2500 L 288 2500 L 288 2456 Z Z" stroke-miterlimit="10"/></g><g transform="translate(-190,-2110) scale(1,1)"><path fill="none" stroke="#000000" d="M 288 2481 L 407.5126953125 2481" stroke-miterlimit="10"/></g><g transform="translate(-190,-2110) scale(1,1)"><path fill="none" stroke="#000000" d="M 288 2491 L 407.5126953125 2491" stroke-miterlimit="10"/></g><g transform="translate(-190,-2110) scale(1,1)"><g><path fill="none" stroke="none"/><text fill="#000000" stroke="none" font-family="Arial" font-size="13px" font-style="normal" font-weight="bold" text-decoration="none" x="295.73095703125" y="2475.5">NTupletGenerator</text></g></g><g transform="translate(-190,-2110) scale(1,1)"><path fill="none" stroke="#000000" d="M 318 2372 L 318 2456" stroke-miterlimit="10"/></g><g transform="translate(-190,-2110) scale(1,1)"><path fill="#FFFFFF" stroke="none" d="M 322.209517756016 2382.162674857624 L 318 2372 L 313.790482243984 2382.162674857624 L 318 2394"/></g><g transform="translate(-190,-2110) scale(1,1)"><path fill="none" stroke="#000000" d="M 322.209517756016 2382.162674857624 L 318 2372 L 313.790482243984 2382.162674857624 L 318 2394 L 322.209517756016 2382.162674857624" stroke-miterlimit="10"/></g><g transform="translate(-190,-2110) scale(1,1)"><path fill="none" stroke="#000000" d="M 807 2372 L 807 2510 M 807 2510 A 8 8 0 0 1 799 2518 L 774 2518" stroke-miterlimit="10"/></g><g transform="translate(-190,-2110) scale(1,1)"><path fill="#FFFFFF" stroke="none" d="M 811.209517756016 2382.162674857624 L 807 2372 L 802.790482243984 2382.162674857624 L 807 2394"/></g><g transform="translate(-190,-2110) scale(1,1)"><path fill="none" stroke="#000000" d="M 811.209517756016 2382.162674857624 L 807 2372 L 802.790482243984 2382.162674857624 L 807 2394 L 811.209517756016 2382.162674857624" stroke-miterlimit="10"/></g><g transform="translate(-190,-2110) scale(1,1)"><path fill="none" stroke="#000000" d="M 964 2460 L 964 2510 M 964 2510 A 8 8 0 0 1 956 2518 L 774 2518" stroke-miterlimit="10"/></g><g transform="translate(-190,-2110) scale(1,1)"><path fill="#FFFFFF" stroke="none" d="M 968.209517756016 2470.162674857624 L 964 2460 L 959.790482243984 2470.162674857624 L 964 2482"/></g><g transform="translate(-190,-2110) scale(1,1)"><path fill="none" stroke="#000000" d="M 968.209517756016 2470.162674857624 L 964 2460 L 959.790482243984 2470.162674857624 L 964 2482 L 968.209517756016 2470.162674857624" stroke-miterlimit="10"/></g><g transform="translate(-190,-2110) scale(1,1)"><path fill="none" stroke="#000000" d="M 981 2372 L 981 2416" stroke-miterlimit="10"/></g><g transform="translate(-190,-2110) scale(1,1)"><path fill="#FFFFFF" stroke="none" d="M 985.209517756016 2382.162674857624 L 981 2372 L 976.790482243984 2382.162674857624 L 981 2394"/></g><g transform="translate(-190,-2110) scale(1,1)"><path fill="none" stroke="#000000" d="M 985.209517756016 2382.162674857624 L 981 2372 L 976.790482243984 2382.162674857624 L 981 2394 L 985.209517756016 2382.162674857624" stroke-miterlimit="10"/></g><g transform="translate(-190,-2110) scale(1,1)"><path fill="none" stroke="#000000" d="M 245 2372 L 245 2510 M 245 2510 A 8 8 0 0 0 253 2518 L 680 2518" stroke-miterlimit="10"/></g><g transform="translate(-190,-2110) scale(1,1)"><path fill="#FFFFFF" stroke="none" d="M 249.209517756016 2382.162674857624 L 245 2372 L 240.790482243984 2382.162674857624 L 245 2394"/></g><g transform="translate(-190,-2110) scale(1,1)"><path fill="none" stroke="#000000" d="M 249.209517756016 2382.162674857624 L 245 2372 L 240.790482243984 2382.162674857624 L 245 2394 L 249.209517756016 2382.162674857624" stroke-miterlimit="10"/></g><g transform="translate(-190,-2110) scale(1,1)"><path fill="#C0C0C0" stroke="none" d="M 249.121337890625 2170.5 C 249.121337890625 2164.1487248 254.270062690625 2159 260.621337890625 2159 C 266.972613090625 2159 272.121337890625 2164.1487248 272.121337890625 2170.5 C 272.121337890625 2176.8512752 266.972613090625 2182 260.621337890625 2182 C 254.270062690625 2182 249.121337890625 2176.8512752 249.121337890625 2170.5 Z" opacity="0.2"/></g><g transform="translate(-190,-2110) scale(1,1)"><path fill="#ffffff" stroke="none" d="M 242.121337890625 2163.5 C 242.121337890625 2157.1487248 247.270062690625 2152 253.621337890625 2152 C 259.972613090625 2152 265.121337890625 2157.1487248 265.121337890625 2163.5 C 265.121337890625 2169.8512752 259.972613090625 2175 253.621337890625 2175 C 247.270062690625 2175 242.121337890625 2169.8512752 242.121337890625 2163.5 Z"/></g><g transform="translate(-190,-2110) scale(1,1)"><path fill="none" stroke="#000000" d="M 242.121337890625 2163.5 C 242.121337890625 2157.1487248 247.270062690625 2152 253.621337890625 2152 C 259.972613090625 2152 265.121337890625 2157.1487248 265.121337890625 2163.5 C 265.121337890625 2169.8512752 259.972613090625 2175 253.621337890625 2175 C 247.270062690625 2175 242.121337890625 2169.8512752 242.121337890625 2163.5 Z" stroke-miterlimit="10"/></g><g transform="translate(-190,-2110) scale(1,1)"><g><path fill="none" stroke="none"/><text fill="#000000" stroke="none" font-family="Arial" font-size="13px" font-style="normal" font-weight="bold" text-decoration="none" x="208.089599609375" y="2194.5">LoggerInterface</text></g></g><g transform="translate(-190,-2110) scale(1,1)"><rect fill="#C0C0C0" stroke="none" x="327" y="2551" width="133.22998046875" height="44" opacity="0.2"/></g><g transform="translate(-190,-2110) scale(1,1)"><rect fill="#ffffff" stroke="none" x="320" y="2544" width="133.22998046875" height="44"/></g><g transform="translate(-190,-2110) scale(1,1)"><path fill="none" stroke="#000000" d="M 320 2544 L 453.22998046875 2544 L 453.22998046875 2588 L 320 2588 L 320 2544 Z Z" stroke-miterlimit="10"/></g><g transform="translate(-190,-2110) scale(1,1)"><path fill="none" stroke="#000000" d="M 320 2569 L 453.22998046875 2569" stroke-miterlimit="10"/></g><g transform="translate(-190,-2110) scale(1,1)"><path fill="none" stroke="#000000" d="M 320 2579 L 453.22998046875 2579" stroke-miterlimit="10"/></g><g transform="translate(-190,-2110) scale(1,1)"><g><path fill="none" stroke="none"/><text fill="#000000" stroke="none" font-family="Arial" font-size="13px" font-style="normal" font-weight="bold" text-decoration="none" x="329.168701171875" y="2563.5">GuidingPathFactory</text></g></g><g transform="translate(-190,-2110) scale(1,1)"><path fill="none" stroke="#000000" d="M 440 2232 L 440 2544" stroke-miterlimit="10"/></g><g transform="translate(-190,-2110) scale(1,1)"><path fill="#FFFFFF" stroke="none" d="M 444.209517756016 2242.162674857624 L 440 2232 L 435.790482243984 2242.162674857624 L 440 2254"/></g><g transform="translate(-190,-2110) scale(1,1)"><path fill="none" stroke="#000000" d="M 444.209517756016 2242.162674857624 L 440 2232 L 435.790482243984 2242.162674857624 L 440 2254 L 444.209517756016 2242.162674857624" stroke-miterlimit="10"/></g><g transform="translate(-190,-2110) scale(1,1)"><path fill="#C0C0C0" stroke="none" d="M 612.240478515625 2634.5 C 612.240478515625 2628.1487248 617.389203315625 2623 623.740478515625 2623 C 630.091753715625 2623 635.240478515625 2628.1487248 635.240478515625 2634.5 C 635.240478515625 2640.8512752 630.091753715625 2646 623.740478515625 2646 C 617.389203315625 2646 612.240478515625 2640.8512752 612.240478515625 2634.5 Z" opacity="0.2"/></g><g transform="translate(-190,-2110) scale(1,1)"><path fill="#ffffff" stroke="none" d="M 605.240478515625 2627.5 C 605.240478515625 2621.1487248 610.389203315625 2616 616.740478515625 2616 C 623.091753715625 2616 628.240478515625 2621.1487248 628.240478515625 2627.5 C 628.240478515625 2633.8512752 623.091753715625 2639 616.740478515625 2639 C 610.389203315625 2639 605.240478515625 2633.8512752 605.240478515625 2627.5 Z"/></g><g transform="translate(-190,-2110) scale(1,1)"><path fill="none" stroke="#000000" d="M 605.240478515625 2627.5 C 605.240478515625 2621.1487248 610.389203315625 2616 616.740478515625 2616 C 623.091753715625 2616 628.240478515625 2621.1487248 628.240478515625 2627.5 C 628.240478515625 2633.8512752 623.091753715625 2639 616.740478515625 2639 C 610.389203315625 2639 605.240478515625 2633.8512752 605.240478515625 2627.5 Z" stroke-miterlimit="10"/></g><g transform="translate(-190,-2110) scale(1,1)"><g><path fill="none" stroke="none"/><text fill="#000000" stroke="none" font-family="Arial" font-size="13px" font-style="normal" font-weight="bold" text-decoration="none" x="554.596923828125" y="2658.5">PathFindingAlgorithm</text></g></g><g transform="translate(-190,-2110) scale(1,1)"><path fill="none" stroke="#000000" d="M 419 2588 L 419 2632 M 419 2632 A 8 8 0 0 0 427 2640 L 544 2640" stroke-miterlimit="10"/></g><g transform="translate(-190,-2110) scale(1,1)"><path fill="#FFFFFF" stroke="none" d="M 423.209517756016 2598.162674857624 L 419 2588 L 414.790482243984 2598.162674857624 L 419 2610"/></g><g transform="translate(-190,-2110) scale(1,1)"><path fill="none" stroke="#000000" d="M 423.209517756016 2598.162674857624 L 419 2588 L 414.790482243984 2598.162674857624 L 419 2610 L 423.209517756016 2598.162674857624" stroke-miterlimit="10"/></g><g transform="translate(-190,-2110) scale(1,1)"><rect fill="#C0C0C0" stroke="none" x="743" y="2623" width="50.919921875" height="44" opacity="0.2"/></g><g transform="translate(-190,-2110) scale(1,1)"><rect fill="#ffffff" stroke="none" x="736" y="2616" width="50.919921875" height="44"/></g><g transform="translate(-190,-2110) scale(1,1)"><path fill="none" stroke="#000000" d="M 736 2616 L 786.919921875 2616 L 786.919921875 2660 L 736 2660 L 736 2616 Z Z" stroke-miterlimit="10"/></g><g transform="translate(-190,-2110) scale(1,1)"><path fill="none" stroke="#000000" d="M 736 2641 L 786.919921875 2641" stroke-miterlimit="10"/></g><g transform="translate(-190,-2110) scale(1,1)"><path fill="none" stroke="#000000" d="M 736 2651 L 786.919921875 2651" stroke-miterlimit="10"/></g><g transform="translate(-190,-2110) scale(1,1)"><g><path fill="none" stroke="none"/><text fill="#000000" stroke="none" font-family="Arial" font-size="13px" font-style="normal" font-weight="bold" text-decoration="none" x="745.20361328125" y="2635.5">AStar</text></g></g><g transform="translate(-190,-2110) scale(1,1)"><path fill="none" stroke="#000000" d="M 736 2627 L 628.240478515625 2627" stroke-miterlimit="10"/></g><g transform="translate(-190,-2110) scale(1,1)"><path fill="none" stroke="#000000" d="M 253 2328 L 253 2175" stroke-miterlimit="10"/></g></g></svg>